<svg xmlns="http://www.w3.org/2000/svg" viewBox="0 0 1200 360" width="1200" height="360"><path d="M28,0 H1172 A28,28 0 0 1 1200,28 V332 A28,28 0 0 1 1172,360 H28 A28,28 0 0 1 0,332 V28 A28,28 0 0 1 28,0 Z" fill="#0B0E14"/><path d="M28,1 H1172 A27,27 0 0 1 1199,28 V332 A27,27 0 0 1 1172,359 H28 A27,27 0 0 1 1,332 V28 A27,27 0 0 1 28,1 Z" fill="none" stroke="#1E2634" stroke-width="2"/><g transform="translate(48,72.0) scale(1.0800)"><defs><radialGradient id="bloom-990" cx="0.5" cy="0.42" r="0.62"><stop offset="0" stop-color="#16800A" stop-opacity="0.211"/><stop offset="1" stop-color="#16800A" stop-opacity="0"/></radialGradient></defs><path d="M48,0 H152 A48,48 0 0 1 200,48 V152 A48,48 0 0 1 152,200 H48 A48,48 0 0 1 0,152 V48 A48,48 0 0 1 48,0 Z" fill="#0B0E14"/><path d="M48,0 H152 A48,48 0 0 1 200,48 V152 A48,48 0 0 1 152,200 H48 A48,48 0 0 1 0,152 V48 A48,48 0 0 1 48,0 Z" fill="url(#bloom-990)"/><path d="M48,1 H152 A47,47 0 0 1 199,48 V152 A47,47 0 0 1 152,199 H48 A47,47 0 0 1 1,152 V48 A47,47 0 0 1 48,1 Z" fill="none" stroke="#1E2634" stroke-width="2"/><g transform="translate(26.0,26.0) scale(0.7400)"><defs><clipPath id="clip-990"><path d="M85,26 H115 A10,10 0 0 1 125,36 V164 A10,10 0 0 1 115,174 H85 A10,10 0 0 1 75,164 V36 A10,10 0 0 1 85,26 Z" fill="#000"/></clipPath></defs><g ><path d="M85,26 H115 A10,10 0 0 1 125,36 V164 A10,10 0 0 1 115,174 H85 A10,10 0 0 1 75,164 V36 A10,10 0 0 1 85,26 Z" fill="#16800A"/></g><g fill="#2D5DFA"><path d="M125,46 H50 L26,64 L50,82 H125 Z"/><path d="M75,118 H150 L174,136 L150,154 H75 Z"/></g><g clip-path="url(#clip-990)" ><g fill="#40AFFB"><path d="M125,46 H50 L26,64 L50,82 H125 Z"/><path d="M75,118 H150 L174,136 L150,154 H75 Z"/></g></g></g></g><g transform="translate(328,121.3)"><g fill="#5C6676" transform="translate(-0.473,0) scale(0.01644,-0.01644)"><g transform="translate(0.00,0)"><path d="M28.765869140625 0 209.4228515625 730H389.029052734375L571.234130859375 0H427.573486328125L390.615234375 169.368408203125H209.535400390625L172.5771484375 0ZM233.48095703125 282.740478515625H365.669677734375L327.50634765625 466.12158203125Q319.150634765625 508.0380859375 311.4246826171875 546.3665771484375Q303.69873046875 584.695068359375 300 604.489990234375Q296.30126953125 584.695068359375 289.4246826171875 546.791259765625Q282.548095703125 508.887451171875 273.343017578125 467.12158203125Z"/></g><g transform="translate(904.17,0)"><path d="M304.4246826171875 -10Q232.054443359375 -10 178.0335693359375 17.1234130859375Q124.0126953125 44.246826171875 94.115234375 93.445556640625Q64.2177734375 142.644287109375 64.2177734375 208.49365234375V521.50634765625Q64.2177734375 588.355712890625 94.115234375 637.054443359375Q124.0126953125 685.753173828125 178.0335693359375 712.8765869140625Q232.054443359375 740 304.4246826171875 740Q376.794921875 740 430.3157958984375 712.80126953125Q483.836669921875 685.6025390625 513.6588134765625 637.0961177034198Q543.48095703125 588.5896963443396 543.48095703125 521.50634765625H402.51904296875Q402.51904296875 568.2177734375 376.6561592810792 592.7994384765625Q350.79327559340845 617.381103515625 303.8421944373292 617.381103515625Q256.89111328125 617.381103515625 231.035400390625 592.7022285461426Q205.1796875 568.0233535766602 205.1796875 521.656982421875V208.49365234375Q205.1796875 162.6969275841346 231.035400390625 137.58259465144232Q256.89111328125 112.46826171875 303.8421944373292 112.46826171875Q350.79327559340845 112.46826171875 376.6561592810792 137.58259465144232Q402.51904296875 162.6969275841346 402.51904296875 208.49365234375V281.31396484375H288.49365234375V401.535400390625H543.48095703125V208.49365234375Q543.48095703125 142.44235517393867 513.6588134765625 93.41990805571933Q483.836669921875 44.3974609375 430.3157958984375 17.19873046875Q376.794921875 -10 304.4246826171875 -10Z"/></g><g transform="translate(1808.33,0)"><path d="M83.0126953125 0V730H528.49365234375V607.23046875H221.27587890625V433.89111328125H493.49365234375V316.51904296875H221.27587890625V122.76953125H528.49365234375V0Z"/></g><g transform="translate(2712.50,0)"><path d="M64.51904296875 0V730H231.234130859375L425.355712890625 155.9619140625Q422.50634765625 191.154296875 418.7322998046875 237.8466796875Q414.958251953125 284.5390625 412.60888671875 331.833984375Q410.259521484375 379.12890625 410.259521484375 413.43017578125V730H535.48095703125V0H368.765869140625L176.49365234375 574.0380859375Q179.343017578125 543.2431640625 182.1923828125 500.3729248046875Q185.041748046875 457.502685546875 187.39111328125 413.1805419921875Q189.740478515625 368.8583984375 189.740478515625 333.55712890625V0Z"/></g><g transform="translate(3616.67,0)"><path d="M229.51904296875 0V602.983642578125H42.259521484375V730H557.740478515625V602.983642578125H370.48095703125V0Z"/></g><g transform="translate(4520.83,0)"><path d=""/></g><g transform="translate(5425.00,0)"><path d="M302.30126953125 -10Q226.355712890625 -10 169.60888671875 16.69873046875Q112.862060546875 43.3974609375 81.81396484375 92.59619140625Q50.765869140625 141.794921875 50.765869140625 208.49365234375H188.330322265625Q188.330322265625 164.48095703125 219.2613525390625 138.474609375Q250.1923828125 112.46826171875 302.30126953125 112.46826171875Q353.259521484375 112.46826171875 382.1905517578125 137.8511962890625Q411.12158203125 163.234130859375 411.12158203125 205.09619140625Q411.12158203125 238.054443359375 392.2930908203125 263.759521484375Q373.464599609375 289.464599609375 337.10888671875 298.067138671875L244.794921875 320.573486328125Q161.355712890625 340.573486328125 112.5126953125 397.169677734375Q63.669677734375 453.765869140625 63.669677734375 532.259521484375Q63.669677734375 596.205078125 91.7930908203125 642.753173828125Q119.91650390625 689.30126953125 172.4373779296875 714.650634765625Q224.958251953125 740 296.150634765625 740Q368.343017578125 740 420.939208984375 714.650634765625Q473.535400390625 689.30126953125 502.6588134765625 642.8284912109375Q531.7822265625 596.355712890625 531.7822265625 533.41015625H394.2177734375Q394.2177734375 573.2177734375 367.862060546875 596.22412109375Q341.50634765625 619.23046875 296.150634765625 619.23046875Q251.644287109375 619.23046875 226.28857421875 596.6488037109375Q200.932861328125 574.067138671875 200.932861328125 536.8076171875Q200.932861328125 506.150634765625 219.4600830078125 486.5689697265625Q237.9873046875 466.9873046875 271.89111328125 458.535400390625L367.205078125 435.87841796875Q451.246826171875 416.727783203125 500.240478515625 354.432861328125Q549.234130859375 292.137939453125 549.234130859375 205.09619140625Q549.234130859375 140.246826171875 519.18603515625 91.548095703125Q489.137939453125 42.849365234375 433.541748046875 16.4246826171875Q377.945556640625 -10 302.30126953125 -10Z"/></g><g transform="translate(6329.17,0)"><path d="M69.067138671875 0V730H210.029052734375V439.7822265625H285.753173828125L413.778564453125 730H566.137939453125L409.76953125 383.945556640625L572.740478515625 0H417.92919921875L286.150634765625 316.615234375H210.029052734375V0Z"/></g><g transform="translate(7233.33,0)"><path d="M83.765869140625 0V127.016357421875H229.368408203125V602.983642578125H83.765869140625V730H516.234130859375V602.983642578125H370.631591796875V127.016357421875H516.234130859375V0Z"/></g><g transform="translate(8137.50,0)"><path d="M117.259521484375 0V730H258.221435546875V127.016357421875H558.49365234375V0Z"/></g><g transform="translate(9041.67,0)"><path d="M117.259521484375 0V730H258.221435546875V127.016357421875H558.49365234375V0Z"/></g></g></g><g transform="translate(328,205.5)"><g fill="#FFFFFF" transform="translate(-6.098,0) scale(0.09296,-0.09296)"><g transform="translate(0.00,0)"><path d="M65.6005859375 0V710H215.597900390625V411.2000732421875L195.998291015625 410.8001708984375Q203.598388671875 457.800048828125 227.29840087890625 487.89996337890625Q250.9984130859375 517.9998779296875 286.29840087890625 532.9998168945312Q321.598388671875 547.999755859375 363.598388671875 547.999755859375Q423.5982666015625 547.999755859375 463.99822998046875 522.1997680664062Q504.398193359375 496.3997802734375 524.898193359375 450.2998046875Q545.398193359375 404.1998291015625 545.398193359375 344.599853515625V0H395.40087890625V309.2003173828125Q395.40087890625 368.801025390625 376.60052490234375 398.90130615234375Q357.8001708984375 429.0015869140625 314.399658203125 429.0015869140625Q268.39892578125 429.0015869140625 241.9984130859375 397.80126953125Q215.597900390625 366.6009521484375 215.597900390625 305.200439453125V0Z"/></g><g transform="translate(595.94,0)"><path d="M307.399169921875 -12Q225.199462890625 -12 164.39971923828125 22.5999755859375Q103.5999755859375 57.199951171875 70.20013427734375 120.2999267578125Q36.80029296875 183.39990234375 36.80029296875 267.9998779296875Q36.80029296875 352.599853515625 70.20013427734375 415.1998291015625Q103.5999755859375 477.7998046875 163.99969482421875 512.8997802734375Q224.3994140625 547.999755859375 305.799072265625 547.999755859375Q385.5986328125 547.999755859375 444.89837646484375 513.099853515625Q504.1981201171875 478.199951171875 536.3980102539062 413.2000732421875Q568.597900390625 348.2001953125 568.597900390625 258.000244140625V227.6004638671875H191.99755859375Q195.1976318359375 164.1995849609375 226.697998046875 132.89910888671875Q258.1983642578125 101.5986328125 309.799072265625 101.5986328125Q347.9996337890625 101.5986328125 373.699951171875 117.99896240234375Q399.4002685546875 134.3992919921875 410.0003662109375 167.1995849609375L561.1978759765625 158.399658203125Q539.597900390625 77.800048828125 471.79827880859375 32.9000244140625Q403.9986572265625 -12 307.399169921875 -12ZM191.99755859375 319.5997314453125H415.400390625Q412.4002685546875 378.6004638671875 382.59991455078125 407.70074462890625Q352.799560546875 436.801025390625 305.799072265625 436.801025390625Q259.198486328125 436.801025390625 228.6981201171875 406.20074462890625Q198.19775390625 375.6004638671875 191.99755859375 319.5997314453125Z"/></g><g transform="translate(1185.88,0)"><path d="M225.39990234375 -12Q141.5999755859375 -12 89.20013427734375 26.5999755859375Q36.80029296875 65.199951171875 36.80029296875 134.39990234375Q36.80029296875 204.7998046875 81.30010986328125 243.49981689453125Q125.7999267578125 282.1998291015625 213.39990234375 299.999755859375L385.800537109375 334.3997802734375Q385.800537109375 386.400390625 362.40020751953125 412.8006591796875Q338.9998779296875 439.200927734375 294.59912109375 439.200927734375Q252.1986083984375 439.200927734375 228.29827880859375 419.500732421875Q204.39794921875 399.800537109375 196.5977783203125 362.2001953125L45.80029296875 368.6002197265625Q61.4002685546875 457.399658203125 125.79998779296875 502.69970703125Q190.19970703125 547.999755859375 294.59912109375 547.999755859375Q414.598388671875 547.999755859375 475.1981201171875 490.79974365234375Q535.7978515625 433.5997314453125 535.7978515625 323.60009765625V141.1986083984375Q535.7978515625 118.3988037109375 543.497802734375 110.59881591796875Q551.19775390625 102.798828125 566.19775390625 102.798828125H581.197998046875V0Q574.1981201171875 -2.199951171875 558.598388671875 -3.89990234375Q542.9986572265625 -5.599853515625 527.598876953125 -5.599853515625Q495.7987060546875 -5.599853515625 468.19891357421875 5.00018310546875Q440.59912109375 15.6002197265625 423.9993896484375 42.5001220703125Q407.399658203125 69.4000244140625 407.399658203125 118.399658203125L419.799560546875 108Q410.399658203125 72.2000732421875 384.599609375 45.00006103515625Q358.799560546875 17.800048828125 318.49957275390625 2.9000244140625Q278.1995849609375 -12 225.39990234375 -12ZM260.998779296875 90.798828125Q298.3994140625 90.798828125 326.2998046875 105.59906005859375Q354.2001953125 120.3992919921875 370.0003662109375 148.099609375Q385.800537109375 175.7999267578125 385.800537109375 214.400146484375V240.400634765625L264.198486328125 214.400390625Q227.5977783203125 206.80029296875 209.4976806640625 190.5001220703125Q191.3975830078125 174.199951171875 191.3975830078125 148.399658203125Q191.3975830078125 120.999267578125 209.19793701171875 105.8990478515625Q226.998291015625 90.798828125 260.998779296875 90.798828125Z"/></g><g transform="translate(1764.82,0)"><path d="M256.6004638671875 -12Q188.8004150390625 -12 139.5003662109375 22.29998779296875Q90.2003173828125 56.5999755859375 63.50030517578125 119.49993896484375Q36.80029296875 182.39990234375 36.80029296875 267.9998779296875Q36.80029296875 353.599853515625 63.80029296875 416.49981689453125Q90.80029296875 479.3997802734375 140.40032958984375 513.6997680664062Q190.0003662109375 547.999755859375 256.6004638671875 547.999755859375Q313.80029296875 547.999755859375 355.400390625 524.5997924804688Q397.00048828125 501.1998291015625 418.4005126953125 459.599853515625V710H568.3978271484375V0H424.6005859375L421.6005859375 78.800048828125Q399.6005859375 35.800048828125 356.10052490234375 11.9000244140625Q312.6004638671875 -12 256.6004638671875 -12ZM305.9991455078125 103.3985595703125Q342.1995849609375 103.3985595703125 367.19989013671875 121.998779296875Q392.2001953125 140.5989990234375 405.30035400390625 177.29931640625Q418.4005126953125 213.9996337890625 418.4005126953125 267.9998779296875Q418.4005126953125 322.8001708984375 405.30035400390625 359.30047607421875Q392.2001953125 395.80078125 367.19989013671875 414.20098876953125Q342.1995849609375 432.6011962890625 305.9991455078125 432.6011962890625Q253.3984375 432.6011962890625 222.39801025390625 388.5008544921875Q191.3975830078125 344.4005126953125 191.3975830078125 267.9998779296875Q191.3975830078125 193.19921875 222.697998046875 148.29888916015625Q253.9984130859375 103.3985595703125 305.9991455078125 103.3985595703125Z"/></g><g transform="translate(2383.76,0)"><path d="M180.000244140625 0 20.800048828125 535.999755859375H171.59765625L264.39892578125 173.196533203125L362.800048828125 535.999755859375H485.19873046875L584.1998291015625 173.196533203125L677.401123046875 535.999755859375H828.19873046875L668.99853515625 0H523.400146484375L423.9993896484375 335.2027587890625L325.1986083984375 0Z"/></g><g transform="translate(3217.70,0)"><path d="M309.1990966796875 -12Q227.199462890625 -12 165.89971923828125 22.5999755859375Q104.5999755859375 57.199951171875 70.70013427734375 120.2999267578125Q36.80029296875 183.39990234375 36.80029296875 267.9998779296875Q36.80029296875 352.9998779296875 70.70013427734375 415.599853515625Q104.5999755859375 478.1998291015625 165.89971923828125 513.0997924804688Q227.199462890625 547.999755859375 309.1990966796875 547.999755859375Q391.19873046875 547.999755859375 452.2984619140625 513.0997924804688Q513.398193359375 478.1998291015625 547.2980346679688 415.599853515625Q581.1978759765625 352.9998779296875 581.1978759765625 267.9998779296875Q581.1978759765625 183.39990234375 547.2980346679688 120.2999267578125Q513.398193359375 57.199951171875 452.2984619140625 22.5999755859375Q391.19873046875 -12 309.1990966796875 -12ZM309.1990966796875 103.3985595703125Q365.3997802734375 103.3985595703125 396.00018310546875 146.59893798828125Q426.6005859375 189.79931640625 426.6005859375 267.9998779296875Q426.6005859375 345.6004638671875 396.00018310546875 389.100830078125Q365.3997802734375 432.6011962890625 309.1990966796875 432.6011962890625Q252.9984130859375 432.6011962890625 222.197998046875 389.100830078125Q191.3975830078125 345.6004638671875 191.3975830078125 267.9998779296875Q191.3975830078125 189.79931640625 222.197998046875 146.59893798828125Q252.9984130859375 103.3985595703125 309.1990966796875 103.3985595703125Z"/></g><g transform="translate(3820.64,0)"><path d="M65.6005859375 0V535.999755859375H207.997802734375L213.19775390625 380.400634765625L201.597900390625 382.8006591796875Q214.5977783203125 464.0001220703125 247.79779052734375 499.99993896484375Q280.997802734375 535.999755859375 339.397705078125 535.999755859375H387.7978515625V411.6015625H338.5977783203125Q296.7978515625 411.6015625 269.6978759765625 400.701416015625Q242.597900390625 389.80126953125 229.097900390625 365.80108642578125Q215.597900390625 341.8009033203125 215.597900390625 301.4007568359375V0Z"/></g><g transform="translate(4230.58,0)"><path d="M65.6005859375 0V710H215.597900390625V316.3970947265625L414.80029296875 535.999755859375H595.197509765625L386.7974853515625 315.1995849609375L601.1976318359375 0H436.8001708984375L289.59912109375 230.000732421875L215.597900390625 151.199462890625V0Z"/></g></g></g><g transform="translate(328,246.5)"><g fill="#8B95A6" transform="translate(-1.236,0) scale(0.02746,-0.02746)"><g transform="translate(0.00,0)"><path d="M369 -16Q268 -16 195.5 28.5Q123 73 84.0 156.0Q45 239 45 354Q45 469 84.0 552.5Q123 636 195.5 681.0Q268 726 369 726Q471 726 543.5 681.0Q616 636 655.0 552.5Q694 469 694 354Q694 239 655.0 156.0Q616 73 543.5 28.5Q471 -16 369 -16ZM369 68Q443 68 495.5 102.0Q548 136 576.0 200.0Q604 264 604 354Q604 444 576.0 508.5Q548 573 495.5 607.5Q443 642 369 642Q296 642 243.5 607.5Q191 573 163.0 508.5Q135 444 135 354Q135 264 163.0 200.0Q191 136 243.5 102.0Q296 68 369 68Z"/></g><g transform="translate(746.28,0)"><path d="M80 0V530H157L160 395L150 404Q160 451 185.0 481.5Q210 512 245.5 527.0Q281 542 322 542Q383 542 422.5 515.0Q462 488 481.5 442.5Q501 397 501 341V0H417V317Q417 366 405.5 399.5Q394 433 369.0 450.5Q344 468 304 468Q243 468 203.5 429.5Q164 391 164 317V0Z"/></g><g transform="translate(1334.56,0)"><path d="M287 -12Q212 -12 157.5 22.0Q103 56 73.5 118.5Q44 181 44 265Q44 349 73.5 411.0Q103 473 156.5 507.5Q210 542 283 542Q352 542 405.0 509.5Q458 477 487.5 415.0Q517 353 517 264V239H132Q137 154 177.5 111.0Q218 68 287 68Q339 68 372.5 92.5Q406 117 419 157L509 150Q488 79 429.5 33.5Q371 -12 287 -12ZM132 313H425Q419 390 380.5 426.0Q342 462 283 462Q222 462 182.5 424.5Q143 387 132 313Z"/></g><g transform="translate(1902.85,0)"><path d=""/></g><g transform="translate(2160.13,0)"><path d="M268 -12Q199 -12 148.5 22.0Q98 56 71.0 118.0Q44 180 44 265Q44 350 71.0 412.0Q98 474 148.5 508.0Q199 542 268 542Q321 542 365.0 519.5Q409 497 431 456V710H515V0H439L436 80Q414 37 369.0 12.5Q324 -12 268 -12ZM285 68Q332 68 364.5 92.0Q397 116 414.0 160.5Q431 205 431 265Q431 327 414.0 371.0Q397 415 364.5 438.5Q332 462 285 462Q215 462 173.5 409.5Q132 357 132 265Q132 174 173.5 121.0Q215 68 285 68Z"/></g><g transform="translate(2762.41,0)"><path d="M287 -12Q212 -12 157.5 22.0Q103 56 73.5 118.5Q44 181 44 265Q44 349 73.5 411.0Q103 473 156.5 507.5Q210 542 283 542Q352 542 405.0 509.5Q458 477 487.5 415.0Q517 353 517 264V239H132Q137 154 177.5 111.0Q218 68 287 68Q339 68 372.5 92.5Q406 117 419 157L509 150Q488 79 429.5 33.5Q371 -12 287 -12ZM132 313H425Q419 390 380.5 426.0Q342 462 283 462Q222 462 182.5 424.5Q143 387 132 313Z"/></g><g transform="translate(3330.69,0)"><path d="M287 -12Q213 -12 158.5 22.0Q104 56 74.0 118.5Q44 181 44 265Q44 349 74.0 411.0Q104 473 158.5 507.5Q213 542 287 542Q348 542 395.5 520.5Q443 499 473.0 458.0Q503 417 512 358L424 352Q415 405 378.0 433.5Q341 462 287 462Q214 462 173.0 409.5Q132 357 132 265Q132 173 173.0 120.5Q214 68 287 68Q341 68 378.0 98.0Q415 128 424 188L512 182Q503 123 473.0 79.5Q443 36 395.5 12.0Q348 -12 287 -12Z"/></g><g transform="translate(3883.97,0)"><path d="M80 0V530H164V0ZM78 613V711H166V613Z"/></g><g transform="translate(4135.26,0)"><path d="M273 -12Q200 -12 150.5 11.0Q101 34 74.5 74.5Q48 115 44 167L132 173Q140 125 171.5 96.5Q203 68 273 68Q327 68 356.5 85.5Q386 103 386 142Q386 163 376.5 177.0Q367 191 339.0 201.5Q311 212 257 222Q183 236 141.0 257.0Q99 278 82.0 308.0Q65 338 65 380Q65 451 117.5 496.5Q170 542 266 542Q336 542 380.5 517.5Q425 493 448.0 454.0Q471 415 476 372L388 366Q386 391 373.0 413.0Q360 435 334.0 448.5Q308 462 264 462Q207 462 180.0 440.0Q153 418 153 384Q153 358 163.5 341.5Q174 325 200.5 314.5Q227 304 273 296Q351 283 395.0 263.0Q439 243 456.5 213.5Q474 184 474 142Q474 69 417.5 28.5Q361 -12 273 -12Z"/></g><g transform="translate(4662.54,0)"><path d="M80 0V530H164V0ZM78 613V711H166V613Z"/></g><g transform="translate(4913.82,0)"><path d="M287 -12Q214 -12 159.0 22.0Q104 56 74.0 118.5Q44 181 44 265Q44 350 74.0 412.0Q104 474 159.0 508.0Q214 542 287 542Q360 542 414.5 508.0Q469 474 499.0 412.0Q529 350 529 265Q529 181 499.0 118.5Q469 56 414.5 22.0Q360 -12 287 -12ZM287 68Q360 68 400.5 120.5Q441 173 441 265Q441 357 400.5 409.5Q360 462 287 462Q214 462 173.0 409.5Q132 357 132 265Q132 173 173.0 120.5Q214 68 287 68Z"/></g><g transform="translate(5494.10,0)"><path d="M80 0V530H157L160 395L150 404Q160 451 185.0 481.5Q210 512 245.5 527.0Q281 542 322 542Q383 542 422.5 515.0Q462 488 481.5 442.5Q501 397 501 341V0H417V317Q417 366 405.5 399.5Q394 433 369.0 450.5Q344 468 304 468Q243 468 203.5 429.5Q164 391 164 317V0Z"/></g><g transform="translate(6082.38,0)"><path d=""/></g><g transform="translate(6339.67,0)"><path d="M223 -12Q141 -12 92.5 26.0Q44 64 44 132Q44 200 84.0 239.0Q124 278 211 294L399 329Q399 396 367.5 429.0Q336 462 273 462Q218 462 186.0 437.5Q154 413 142 367L53 374Q68 449 125.5 495.5Q183 542 273 542Q375 542 429.0 484.5Q483 427 483 326V107Q483 89 489.5 81.5Q496 74 511 74H532V0Q528 -1 519.0 -1.5Q510 -2 500 -2Q464 -2 441.5 9.5Q419 21 409.0 45.5Q399 70 399 110L409 108Q402 74 375.0 46.5Q348 19 308.0 3.5Q268 -12 223 -12ZM231 62Q284 62 321.5 82.5Q359 103 379.0 138.5Q399 174 399 218V256L227 224Q173 214 152.5 193.5Q132 173 132 140Q132 103 158.5 82.5Q185 62 231 62Z"/></g><g transform="translate(6897.95,0)"><path d="M274 0Q202 0 167.5 33.0Q133 66 133 136V654H217V138Q217 102 233.0 88.0Q249 74 282 74H358V0ZM55 456V530H358V456Z"/></g><g transform="translate(7297.23,0)"><path d=""/></g><g transform="translate(7554.51,0)"><path d="M223 -12Q141 -12 92.5 26.0Q44 64 44 132Q44 200 84.0 239.0Q124 278 211 294L399 329Q399 396 367.5 429.0Q336 462 273 462Q218 462 186.0 437.5Q154 413 142 367L53 374Q68 449 125.5 495.5Q183 542 273 542Q375 542 429.0 484.5Q483 427 483 326V107Q483 89 489.5 81.5Q496 74 511 74H532V0Q528 -1 519.0 -1.5Q510 -2 500 -2Q464 -2 441.5 9.5Q419 21 409.0 45.5Q399 70 399 110L409 108Q402 74 375.0 46.5Q348 19 308.0 3.5Q268 -12 223 -12ZM231 62Q284 62 321.5 82.5Q359 103 379.0 138.5Q399 174 399 218V256L227 224Q173 214 152.5 193.5Q132 173 132 140Q132 103 158.5 82.5Q185 62 231 62Z"/></g><g transform="translate(8112.79,0)"><path d=""/></g><g transform="translate(8370.08,0)"><path d="M274 0Q202 0 167.5 33.0Q133 66 133 136V654H217V138Q217 102 233.0 88.0Q249 74 282 74H358V0ZM55 456V530H358V456Z"/></g><g transform="translate(8769.36,0)"><path d="M80 0V530H164V0ZM78 613V711H166V613Z"/></g><g transform="translate(9020.64,0)"><path d="M80 0V530H157L160 396L148 400Q157 444 179.5 475.5Q202 507 235.0 524.5Q268 542 308 542Q377 542 420.5 504.0Q464 466 475 398L459 399Q467 445 488.5 476.5Q510 508 544.0 525.0Q578 542 622 542Q679 542 718.0 518.5Q757 495 777.0 450.0Q797 405 797 341V0H713V323Q713 395 685.0 431.5Q657 468 602 468Q565 468 537.5 450.0Q510 432 495.0 398.5Q480 365 480 317V0H396V317Q396 388 371.0 428.0Q346 468 287 468Q250 468 222.5 450.0Q195 432 179.5 398.0Q164 364 164 317V0Z"/></g><g transform="translate(9904.92,0)"><path d="M287 -12Q212 -12 157.5 22.0Q103 56 73.5 118.5Q44 181 44 265Q44 349 73.5 411.0Q103 473 156.5 507.5Q210 542 283 542Q352 542 405.0 509.5Q458 477 487.5 415.0Q517 353 517 264V239H132Q137 154 177.5 111.0Q218 68 287 68Q339 68 372.5 92.5Q406 117 419 157L509 150Q488 79 429.5 33.5Q371 -12 287 -12ZM132 313H425Q419 390 380.5 426.0Q342 462 283 462Q222 462 182.5 424.5Q143 387 132 313Z"/></g><g transform="translate(10473.21,0)"><path d="M47 -156 95 0H44V113H157V14L97 -156Z"/></g><g transform="translate(10681.49,0)"><path d=""/></g><g transform="translate(10938.77,0)"><path d="M186 0 22 530H114L238 88L364 530H454L580 88L705 530H797L633 0H527L409 403L291 0Z"/></g><g transform="translate(11765.05,0)"><path d="M80 0V530H164V0ZM78 613V711H166V613Z"/></g><g transform="translate(12016.33,0)"><path d="M274 0Q202 0 167.5 33.0Q133 66 133 136V654H217V138Q217 102 233.0 88.0Q249 74 282 74H358V0ZM55 456V530H358V456Z"/></g><g transform="translate(12415.62,0)"><path d="M80 0V710H164V413L154 415Q164 459 188.0 487.0Q212 515 247.0 528.5Q282 542 324 542Q381 542 420.5 516.5Q460 491 480.5 445.5Q501 400 501 341V0H417V317Q417 394 389.5 431.0Q362 468 306 468Q242 468 203.0 429.0Q164 390 164 316V0Z"/></g><g transform="translate(13003.90,0)"><path d=""/></g><g transform="translate(13261.18,0)"><path d="M223 -12Q141 -12 92.5 26.0Q44 64 44 132Q44 200 84.0 239.0Q124 278 211 294L399 329Q399 396 367.5 429.0Q336 462 273 462Q218 462 186.0 437.5Q154 413 142 367L53 374Q68 449 125.5 495.5Q183 542 273 542Q375 542 429.0 484.5Q483 427 483 326V107Q483 89 489.5 81.5Q496 74 511 74H532V0Q528 -1 519.0 -1.5Q510 -2 500 -2Q464 -2 441.5 9.5Q419 21 409.0 45.5Q399 70 399 110L409 108Q402 74 375.0 46.5Q348 19 308.0 3.5Q268 -12 223 -12ZM231 62Q284 62 321.5 82.5Q359 103 379.0 138.5Q399 174 399 218V256L227 224Q173 214 152.5 193.5Q132 173 132 140Q132 103 158.5 82.5Q185 62 231 62Z"/></g><g transform="translate(13819.46,0)"><path d=""/></g><g transform="translate(14076.74,0)"><path d="M80 0V530H154L158 396L150 399Q160 467 193.5 498.5Q227 530 283 530H335V450H284Q244 450 217.5 435.5Q191 421 177.5 392.5Q164 364 164 320V0Z"/></g><g transform="translate(14463.03,0)"><path d="M287 -12Q212 -12 157.5 22.0Q103 56 73.5 118.5Q44 181 44 265Q44 349 73.5 411.0Q103 473 156.5 507.5Q210 542 283 542Q352 542 405.0 509.5Q458 477 487.5 415.0Q517 353 517 264V239H132Q137 154 177.5 111.0Q218 68 287 68Q339 68 372.5 92.5Q406 117 419 157L509 150Q488 79 429.5 33.5Q371 -12 287 -12ZM132 313H425Q419 390 380.5 426.0Q342 462 283 462Q222 462 182.5 424.5Q143 387 132 313Z"/></g><g transform="translate(15031.31,0)"><path d="M287 -12Q213 -12 158.5 22.0Q104 56 74.0 118.5Q44 181 44 265Q44 349 74.0 411.0Q104 473 158.5 507.5Q213 542 287 542Q348 542 395.5 520.5Q443 499 473.0 458.0Q503 417 512 358L424 352Q415 405 378.0 433.5Q341 462 287 462Q214 462 173.0 409.5Q132 357 132 265Q132 173 173.0 120.5Q214 68 287 68Q341 68 378.0 98.0Q415 128 424 188L512 182Q503 123 473.0 79.5Q443 36 395.5 12.0Q348 -12 287 -12Z"/></g><g transform="translate(15584.59,0)"><path d="M287 -12Q214 -12 159.0 22.0Q104 56 74.0 118.5Q44 181 44 265Q44 350 74.0 412.0Q104 474 159.0 508.0Q214 542 287 542Q360 542 414.5 508.0Q469 474 499.0 412.0Q529 350 529 265Q529 181 499.0 118.5Q469 56 414.5 22.0Q360 -12 287 -12ZM287 68Q360 68 400.5 120.5Q441 173 441 265Q441 357 400.5 409.5Q360 462 287 462Q214 462 173.0 409.5Q132 357 132 265Q132 173 173.0 120.5Q214 68 287 68Z"/></g><g transform="translate(16164.87,0)"><path d="M80 0V530H157L160 396L148 400Q157 444 179.5 475.5Q202 507 235.0 524.5Q268 542 308 542Q377 542 420.5 504.0Q464 466 475 398L459 399Q467 445 488.5 476.5Q510 508 544.0 525.0Q578 542 622 542Q679 542 718.0 518.5Q757 495 777.0 450.0Q797 405 797 341V0H713V323Q713 395 685.0 431.5Q657 468 602 468Q565 468 537.5 450.0Q510 432 495.0 398.5Q480 365 480 317V0H396V317Q396 388 371.0 428.0Q346 468 287 468Q250 468 222.5 450.0Q195 432 179.5 398.0Q164 364 164 317V0Z"/></g><g transform="translate(17049.15,0)"><path d="M80 0V530H157L160 396L148 400Q157 444 179.5 475.5Q202 507 235.0 524.5Q268 542 308 542Q377 542 420.5 504.0Q464 466 475 398L459 399Q467 445 488.5 476.5Q510 508 544.0 525.0Q578 542 622 542Q679 542 718.0 518.5Q757 495 777.0 450.0Q797 405 797 341V0H713V323Q713 395 685.0 431.5Q657 468 602 468Q565 468 537.5 450.0Q510 432 495.0 398.5Q480 365 480 317V0H396V317Q396 388 371.0 428.0Q346 468 287 468Q250 468 222.5 450.0Q195 432 179.5 398.0Q164 364 164 317V0Z"/></g><g transform="translate(17933.44,0)"><path d="M287 -12Q212 -12 157.5 22.0Q103 56 73.5 118.5Q44 181 44 265Q44 349 73.5 411.0Q103 473 156.5 507.5Q210 542 283 542Q352 542 405.0 509.5Q458 477 487.5 415.0Q517 353 517 264V239H132Q137 154 177.5 111.0Q218 68 287 68Q339 68 372.5 92.5Q406 117 419 157L509 150Q488 79 429.5 33.5Q371 -12 287 -12ZM132 313H425Q419 390 380.5 426.0Q342 462 283 462Q222 462 182.5 424.5Q143 387 132 313Z"/></g><g transform="translate(18501.72,0)"><path d="M80 0V530H157L160 395L150 404Q160 451 185.0 481.5Q210 512 245.5 527.0Q281 542 322 542Q383 542 422.5 515.0Q462 488 481.5 442.5Q501 397 501 341V0H417V317Q417 366 405.5 399.5Q394 433 369.0 450.5Q344 468 304 468Q243 468 203.5 429.5Q164 391 164 317V0Z"/></g><g transform="translate(19090.00,0)"><path d="M268 -12Q199 -12 148.5 22.0Q98 56 71.0 118.0Q44 180 44 265Q44 350 71.0 412.0Q98 474 148.5 508.0Q199 542 268 542Q321 542 365.0 519.5Q409 497 431 456V710H515V0H439L436 80Q414 37 369.0 12.5Q324 -12 268 -12ZM285 68Q332 68 364.5 92.0Q397 116 414.0 160.5Q431 205 431 265Q431 327 414.0 371.0Q397 415 364.5 438.5Q332 462 285 462Q215 462 173.5 409.5Q132 357 132 265Q132 174 173.5 121.0Q215 68 285 68Z"/></g><g transform="translate(19692.28,0)"><path d="M223 -12Q141 -12 92.5 26.0Q44 64 44 132Q44 200 84.0 239.0Q124 278 211 294L399 329Q399 396 367.5 429.0Q336 462 273 462Q218 462 186.0 437.5Q154 413 142 367L53 374Q68 449 125.5 495.5Q183 542 273 542Q375 542 429.0 484.5Q483 427 483 326V107Q483 89 489.5 81.5Q496 74 511 74H532V0Q528 -1 519.0 -1.5Q510 -2 500 -2Q464 -2 441.5 9.5Q419 21 409.0 45.5Q399 70 399 110L409 108Q402 74 375.0 46.5Q348 19 308.0 3.5Q268 -12 223 -12ZM231 62Q284 62 321.5 82.5Q359 103 379.0 138.5Q399 174 399 218V256L227 224Q173 214 152.5 193.5Q132 173 132 140Q132 103 158.5 82.5Q185 62 231 62Z"/></g><g transform="translate(20250.56,0)"><path d="M274 0Q202 0 167.5 33.0Q133 66 133 136V654H217V138Q217 102 233.0 88.0Q249 74 282 74H358V0ZM55 456V530H358V456Z"/></g><g transform="translate(20649.85,0)"><path d="M80 0V530H164V0ZM78 613V711H166V613Z"/></g><g transform="translate(20901.13,0)"><path d="M287 -12Q214 -12 159.0 22.0Q104 56 74.0 118.5Q44 181 44 265Q44 350 74.0 412.0Q104 474 159.0 508.0Q214 542 287 542Q360 542 414.5 508.0Q469 474 499.0 412.0Q529 350 529 265Q529 181 499.0 118.5Q469 56 414.5 22.0Q360 -12 287 -12ZM287 68Q360 68 400.5 120.5Q441 173 441 265Q441 357 400.5 409.5Q360 462 287 462Q214 462 173.0 409.5Q132 357 132 265Q132 173 173.0 120.5Q214 68 287 68Z"/></g><g transform="translate(21481.41,0)"><path d="M80 0V530H157L160 395L150 404Q160 451 185.0 481.5Q210 512 245.5 527.0Q281 542 322 542Q383 542 422.5 515.0Q462 488 481.5 442.5Q501 397 501 341V0H417V317Q417 366 405.5 399.5Q394 433 369.0 450.5Q344 468 304 468Q243 468 203.5 429.5Q164 391 164 317V0Z"/></g></g></g><g transform="translate(1019.6592071963028,40) scale(0.20800000000000002)"><defs><mask id="maendorse"><rect width="200" height="200" fill="white"/><circle cx="126" cy="88" r="17" fill="black"/></mask><mask id="mbendorse"><rect width="200" height="200" fill="white"/><circle cx="92" cy="138" r="17" fill="black"/></mask></defs><g transform="translate(-9,-13)"><g mask="url(#maendorse)"><rect x="48" y="60" width="78" height="78" rx="24" fill="none" stroke="#2B6BF3" stroke-width="16"/></g><g mask="url(#mbendorse)"><rect x="92" y="88" width="78" height="78" rx="24" fill="none" stroke="#2AD4C5" stroke-width="16"/></g></g></g><g transform="translate(1073.3,66.2)"><g fill="#8B95A6" transform="translate(-1.668,0) scale(0.02254,-0.02254)"><g transform="translate(0.00,0)"><path d="M74.000732421875 0V710H318.5997314453125Q491.599365234375 710 584.5991821289062 617.5Q677.5989990234375 525 677.5989990234375 354Q677.5989990234375 184 586.0991821289062 92.0Q494.599365234375 0 324.5997314453125 0ZM225.998046875 127.7982177734375H318.5997314453125Q422.0006103515625 127.7982177734375 471.50115966796875 183.59869384765625Q521.001708984375 239.399169921875 521.001708984375 354.5999755859375Q521.001708984375 470.600830078125 471.50115966796875 526.4013061523438Q422.0006103515625 582.2017822265625 318.5997314453125 582.2017822265625H225.998046875Z"/></g><g transform="translate(831.38,0)"><path d="M74.000732421875 0V710H350.3994140625Q482.399169921875 710 552.2988891601562 663.7000122070312Q622.1986083984375 617.4000244140625 622.1986083984375 517.2000732421875Q622.1986083984375 473 604.2985229492188 440.39990234375Q586.3984375 407.7998046875 551.79833984375 388.8997802734375Q517.1982421875 369.999755859375 467.9981689453125 366.39990234375L467.59814453125 367.60009765625Q557.398193359375 362.2003173828125 604.7984008789062 316.7001953125Q652.1986083984375 271.2000732421875 652.1986083984375 195.5999755859375Q652.1986083984375 96.800048828125 582.598876953125 48.4000244140625Q512.9991455078125 0 384.399658203125 0ZM225.998046875 123.598388671875H376.5999755859375Q431.6007080078125 123.598388671875 465.1009521484375 146.09869384765625Q498.6011962890625 168.5989990234375 498.6011962890625 213.7994384765625Q498.6011962890625 258.9998779296875 465.40093994140625 282.40020751953125Q432.20068359375 305.800537109375 376.5999755859375 305.800537109375H225.998046875ZM225.998046875 416.199462890625H345.599609375Q402.00048828125 416.199462890625 435.30084228515625 437.8997802734375Q468.6011962890625 459.60009765625 468.6011962890625 501.2005615234375Q468.6011962890625 545.2010498046875 436.20086669921875 565.8013305664062Q403.800537109375 586.401611328125 345.599609375 586.401611328125H225.998046875Z"/></g><g transform="translate(1649.75,0)"><path d="M74.000732421875 0V710H225.998046875V373.399658203125L158.5989990234375 421.1990966796875H562.8006591796875L495.401611328125 373.399658203125V710H647.39892578125V0H495.401611328125V340.600341796875L562.8006591796875 293.40087890625H158.5989990234375L225.998046875 340.600341796875V0Z"/></g><g transform="translate(2486.12,0)"><path d="M566.5992431640625 -61.80029296875 511.799072265625 7Q488.9990234375 -3.5999755859375 456.3990478515625 -9.79998779296875Q423.799072265625 -16 384.5992431640625 -16Q279.599365234375 -16 202.6995849609375 31.40008544921875Q125.7998046875 78.8001708984375 83.89996337890625 162.50018310546875Q42.0001220703125 246.2001953125 42.0001220703125 354Q42.0001220703125 459.7999267578125 81.300048828125 543.7999267578125Q120.5999755859375 627.7999267578125 197.3997802734375 676.8999633789062Q274.1995849609375 726 384.5992431640625 726Q495.7989501953125 726 572.2987670898438 676.8999633789062Q648.798583984375 627.7999267578125 687.8984985351562 543.7999267578125Q726.9984130859375 459.7999267578125 726.9984130859375 354Q726.9984130859375 255.4000244140625 693.4983520507812 180.29974365234375Q659.998291015625 105.199462890625 598.1981201171875 55.199462890625L692.1978759765625 -61.80029296875ZM384.5992431640625 111.7982177734375Q398.1995849609375 111.7982177734375 409.1998291015625 113.39825439453125Q420.2000732421875 114.998291015625 429.6002197265625 118.598388671875L331.4000244140625 239.7987060546875H456.9986572265625L508.9996337890625 170.9974365234375Q538.8004150390625 199.1978759765625 554.6007690429688 243.6986083984375Q570.401123046875 288.1993408203125 570.401123046875 354Q570.401123046875 419.2005615234375 550.90087890625 474.6009521484375Q531.400634765625 530.0013427734375 490.40020751953125 564.1015625Q449.3997802734375 598.2017822265625 384.5992431640625 598.2017822265625Q319.7987060546875 598.2017822265625 278.69830322265625 564.1015625Q237.597900390625 530.0013427734375 218.09765625 474.6009521484375Q198.597412109375 419.2005615234375 198.597412109375 354Q198.597412109375 289.7994384765625 218.39764404296875 234.3990478515625Q238.1978759765625 178.9986572265625 279.498291015625 145.3984375Q320.7987060546875 111.7982177734375 384.5992431640625 111.7982177734375Z"/></g></g></g></svg>